<?xml version="1.0" encoding="UTF-8" standalone="no"?>
<svg width="16" height="16" viewBox="0 0 16 16" xmlns="http://www.w3.org/2000/svg">
  <path d="M 4 0 3 1 2 1 1 2 1 14 2 15 3 15 4 16 1.5 16 0 14.5 0 1.5 1.5 0 Z" />
  <path d="M 12 0 14.5 0 16 1.5 16 14.5 14.5 16 12 16 13 15 14 15 15 14 15 2 14 1 13 1 Z" />
  <path d="M 6 0 10 0 11 1 5 1 Z" />
  <path d="M 5 15 11 15 10 16 6 16 Z" />
  <path d="M 3 5 7 5 7 6 3 6 Z" />
  <path d="M 10.5 3 11.5 3 11.5 7 10.5 7 Z" />
  <path d="m 9 4.5 0.5 -1 3.5 2 -0.5 1 z" />
  <path d="m 12.5 3.5 0.5 1 -3.5 2 -0.5 -1 z" />
  <circle r="1.5" cx="4.5" cy="11.5" />
  <path d="M 7 12 11 12 12 11 12 10 13 9 13 11.5 11.5 13 6 13 Z" />
</svg>